<?xml version="1.0" encoding="UTF-8" standalone="no"?>
<svg
   xmlns:dc="http://purl.org/dc/elements/1.1/"
   xmlns:cc="http://creativecommons.org/ns#"
   xmlns:rdf="http://www.w3.org/1999/02/22-rdf-syntax-ns#"
   xmlns:svg="http://www.w3.org/2000/svg"
   xmlns="http://www.w3.org/2000/svg"
   xmlns:sodipodi="http://sodipodi.sourceforge.net/DTD/sodipodi-0.dtd"
   xmlns:inkscape="http://www.inkscape.org/namespaces/inkscape"
   width="40"
   height="40"
   viewBox="0 0 10.583333 10.583334"
   version="1.1"
   id="svg8"
   inkscape:version="1.0 (4035a4fb49, 2020-05-01)"
   sodipodi:docname="descending_cases_filter_icon.svg">
  <defs
     id="defs2" />
  <sodipodi:namedview
     id="base"
     pagecolor="#ffffff"
     bordercolor="#666666"
     borderopacity="1.0"
     inkscape:pageopacity="0.0"
     inkscape:pageshadow="2"
     inkscape:zoom="11.2"
     inkscape:cx="3.2288896"
     inkscape:cy="22.193169"
     inkscape:document-units="mm"
     inkscape:current-layer="g1179"
     inkscape:document-rotation="0"
     showgrid="false"
     units="px"
     inkscape:window-width="1920"
     inkscape:window-height="996"
     inkscape:window-x="-9"
     inkscape:window-y="44"
     inkscape:window-maximized="1" />
  <metadata
     id="metadata5">
    <rdf:RDF>
      <cc:Work
         rdf:about="">
        <dc:format>image/svg+xml</dc:format>
        <dc:type
           rdf:resource="http://purl.org/dc/dcmitype/StillImage" />
        <dc:title></dc:title>
      </cc:Work>
    </rdf:RDF>
  </metadata>
  <g
     inkscape:label="Layer 1"
     inkscape:groupmode="layer"
     id="layer1">
    <g
       id="g1179"
       transform="matrix(1.0116479,0,0,1.0116479,-0.20503013,-0.01383971)">
      <rect
         inkscape:export-ydpi="96"
         inkscape:export-xdpi="96"
         style="fill:#ff7070;fill-opacity:1;stroke:#ff7070;stroke-width:0.0482629;stroke-miterlimit:4;stroke-dasharray:none;stroke-opacity:1"
         id="rect2694"
         width="10.413215"
         height="10.413216"
         x="0.2268009"
         y="0.037811812"
         ry="2.7522545" />
      <g
         inkscape:export-ydpi="96"
         inkscape:export-xdpi="96"
         id="g2704"
         transform="matrix(0.36775329,0,0,-0.36775329,-94.828197,-157.77378)">
        <g
           style="font-size:20.1633px;line-height:1.25;font-family:Arial;-inkscape-font-specification:Arial;letter-spacing:0px;word-spacing:0px;stroke-width:1.26021"
           id="text2698"
           aria-label="^">
          <path
             id="path887"
             style="font-style:normal;font-variant:normal;font-weight:300;font-stretch:normal;font-family:'Josefin Sans';-inkscape-font-specification:'Josefin Sans Light';fill:#ffffff;fill-opacity:1;stroke-width:1.26021"
             d="m 283.31218,-448.23067 q -0.26212,-0.38311 -0.56457,-0.80654 -0.30245,-0.44359 -0.62506,-0.88718 -0.30245,-0.44359 -0.56458,-0.8267 -0.26212,0.38311 -0.56457,0.8267 -0.30245,0.44359 -0.6049,0.88718 -0.30245,0.42343 -0.56457,0.80654 h -0.68555 q 0.6049,-0.90735 1.2098,-1.8147 0.60489,-0.92751 1.20979,-1.83486 v 0 q 0.6049,0.90735 1.2098,1.83486 0.62506,0.90735 1.22996,1.8147 z" />
        </g>
        <g
           style="font-size:18.6056px;line-height:1.25;font-family:Arial;-inkscape-font-specification:Arial;letter-spacing:0px;word-spacing:0px;stroke-width:1.16286"
           id="text2702"
           transform="scale(1.0837207,0.92274699)"
           aria-label="|">
          <path
             id="path890"
             style="font-style:normal;font-variant:normal;font-weight:300;font-stretch:normal;font-family:'Josefin Sans';-inkscape-font-specification:'Josefin Sans Light';fill:#ffffff;fill-opacity:1;stroke-width:1.16286"
             d="m 259.40674,-488.50789 h 0.81865 v 17.43345 h -0.81865 z" />
        </g>
      </g>
      <g
         inkscape:export-ydpi="96"
         inkscape:export-xdpi="96"
         style="fill:#ffffff;fill-opacity:1"
         id="g2804"
         transform="matrix(0.09755995,-0.01007501,0.01007501,0.09755988,91.412895,24.644071)">
        <path
           d="m -832.57219,-285.91797 a 26.726337,26.726341 0 0 1 -26.72633,26.72634 26.726337,26.726341 0 0 1 -26.72634,-26.72634 26.726337,26.726341 0 0 1 26.72634,-26.72634 26.726337,26.726341 0 0 1 26.72633,26.72634"
           style="fill:#ffffff;fill-opacity:1;stroke:#373737;stroke-width:0;stroke-miterlimit:4;stroke-dasharray:none;stroke-opacity:1"
           id="path2706" />
        <g
           style="fill:#ffffff;fill-opacity:1"
           transform="matrix(0.52916301,0,0,0.52916301,-399.61818,-159.0759)"
           id="g2714">
          <path
             d="m -871.33911,-299.46121 h 5.29167 v 120.5744 h -5.29167 z"
             style="opacity:1;fill:#ffffff;fill-opacity:1;stroke:#373737;stroke-width:0;stroke-miterlimit:4;stroke-dasharray:none;stroke-opacity:1"
             id="path2708" />
          <path
             d="m -863.73261,-297.76035 a 4.9606886,4.9606895 0 0 1 -4.96069,4.96069 4.9606886,4.9606895 0 0 1 -4.96069,-4.96069 4.9606886,4.9606895 0 0 1 4.96069,-4.96069 4.9606886,4.9606895 0 0 1 4.96069,4.96069"
             style="opacity:1;fill:#ffffff;fill-opacity:1;stroke:#373737;stroke-width:0;stroke-miterlimit:4;stroke-dasharray:none;stroke-opacity:1"
             id="path2710" />
          <path
             d="m -863.73261,-181.64604 a 4.9606886,4.9606895 0 0 1 -4.96069,4.96069 4.9606886,4.9606895 0 0 1 -4.96069,-4.96069 4.9606886,4.9606895 0 0 1 4.96069,-4.96069 4.9606886,4.9606895 0 0 1 4.96069,4.96069"
             style="opacity:1;fill:#ffffff;fill-opacity:1;stroke:#373737;stroke-width:0;stroke-miterlimit:4;stroke-dasharray:none;stroke-opacity:1"
             id="path2712" />
        </g>
        <g
           style="fill:#ffffff;fill-opacity:1"
           id="g2722"
           transform="matrix(0.51113222,0.13695746,-0.13695746,0.51113222,-448.11055,-44.423912)">
          <path
             d="m -871.33911,-299.46121 h 5.29167 v 120.5744 h -5.29167 z"
             style="opacity:1;fill:#ffffff;fill-opacity:1;stroke:#373737;stroke-width:0;stroke-miterlimit:4;stroke-dasharray:none;stroke-opacity:1"
             id="path2716" />
          <path
             d="m -863.73261,-297.76035 a 4.9606886,4.9606895 0 0 1 -4.96069,4.96069 4.9606886,4.9606895 0 0 1 -4.96069,-4.96069 4.9606886,4.9606895 0 0 1 4.96069,-4.96069 4.9606886,4.9606895 0 0 1 4.96069,4.96069"
             style="opacity:1;fill:#ffffff;fill-opacity:1;stroke:#373737;stroke-width:0;stroke-miterlimit:4;stroke-dasharray:none;stroke-opacity:1"
             id="path2718" />
          <path
             d="m -863.73261,-181.64604 a 4.9606886,4.9606895 0 0 1 -4.96069,4.96069 4.9606886,4.9606895 0 0 1 -4.96069,-4.96069 4.9606886,4.9606895 0 0 1 4.96069,-4.96069 4.9606886,4.9606895 0 0 1 4.96069,4.96069"
             style="opacity:1;fill:#ffffff;fill-opacity:1;stroke:#373737;stroke-width:0;stroke-miterlimit:4;stroke-dasharray:none;stroke-opacity:1"
             id="path2720" />
        </g>
        <g
           style="fill:#ffffff;fill-opacity:1"
           transform="matrix(0.45826861,0.2645815,-0.2645815,0.45826861,-524.62471,53.77066)"
           id="g2730">
          <path
             d="m -871.33911,-299.46121 h 5.29167 v 120.5744 h -5.29167 z"
             style="opacity:1;fill:#ffffff;fill-opacity:1;stroke:#373737;stroke-width:0;stroke-miterlimit:4;stroke-dasharray:none;stroke-opacity:1"
             id="path2724" />
          <path
             d="m -863.73261,-297.76035 a 4.9606886,4.9606895 0 0 1 -4.96069,4.96069 4.9606886,4.9606895 0 0 1 -4.96069,-4.96069 4.9606886,4.9606895 0 0 1 4.96069,-4.96069 4.9606886,4.9606895 0 0 1 4.96069,4.96069"
             style="opacity:1;fill:#ffffff;fill-opacity:1;stroke:#373737;stroke-width:0;stroke-miterlimit:4;stroke-dasharray:none;stroke-opacity:1"
             id="path2726" />
          <path
             d="m -863.73261,-181.64604 a 4.9606886,4.9606895 0 0 1 -4.96069,4.96069 4.9606886,4.9606895 0 0 1 -4.96069,-4.96069 4.9606886,4.9606895 0 0 1 4.96069,-4.96069 4.9606886,4.9606895 0 0 1 4.96069,4.96069"
             style="opacity:1;fill:#ffffff;fill-opacity:1;stroke:#373737;stroke-width:0;stroke-miterlimit:4;stroke-dasharray:none;stroke-opacity:1"
             id="path2728" />
        </g>
        <g
           style="fill:#ffffff;fill-opacity:1"
           id="g2738"
           transform="matrix(0.37417475,0.37417475,-0.37417475,0.37417475,-623.94633,128.81601)">
          <path
             d="m -871.33911,-299.46121 h 5.29167 v 120.5744 h -5.29167 z"
             style="opacity:1;fill:#ffffff;fill-opacity:1;stroke:#373737;stroke-width:0;stroke-miterlimit:4;stroke-dasharray:none;stroke-opacity:1"
             id="path2732" />
          <path
             d="m -863.73261,-297.76035 a 4.9606886,4.9606895 0 0 1 -4.96069,4.96069 4.9606886,4.9606895 0 0 1 -4.96069,-4.96069 4.9606886,4.9606895 0 0 1 4.96069,-4.96069 4.9606886,4.9606895 0 0 1 4.96069,4.96069"
             style="opacity:1;fill:#ffffff;fill-opacity:1;stroke:#373737;stroke-width:0;stroke-miterlimit:4;stroke-dasharray:none;stroke-opacity:1"
             id="path2734" />
          <path
             d="m -863.73261,-181.64604 a 4.9606886,4.9606895 0 0 1 -4.96069,4.96069 4.9606886,4.9606895 0 0 1 -4.96069,-4.96069 4.9606886,4.9606895 0 0 1 4.96069,-4.96069 4.9606886,4.9606895 0 0 1 4.96069,4.96069"
             style="opacity:1;fill:#ffffff;fill-opacity:1;stroke:#373737;stroke-width:0;stroke-miterlimit:4;stroke-dasharray:none;stroke-opacity:1"
             id="path2736" />
        </g>
        <g
           style="fill:#ffffff;fill-opacity:1"
           transform="matrix(0.26458151,0.45826861,-0.45826861,0.26458151,-739.30681,175.59793)"
           id="g2746">
          <path
             d="m -871.33911,-299.46121 h 5.29167 v 120.5744 h -5.29167 z"
             style="opacity:1;fill:#ffffff;fill-opacity:1;stroke:#373737;stroke-width:0;stroke-miterlimit:4;stroke-dasharray:none;stroke-opacity:1"
             id="path2740" />
          <path
             d="m -863.73261,-297.76035 a 4.9606886,4.9606895 0 0 1 -4.96069,4.96069 4.9606886,4.9606895 0 0 1 -4.96069,-4.96069 4.9606886,4.9606895 0 0 1 4.96069,-4.96069 4.9606886,4.9606895 0 0 1 4.96069,4.96069"
             style="opacity:1;fill:#ffffff;fill-opacity:1;stroke:#373737;stroke-width:0;stroke-miterlimit:4;stroke-dasharray:none;stroke-opacity:1"
             id="path2742" />
          <path
             d="m -863.73261,-181.64604 a 4.9606886,4.9606895 0 0 1 -4.96069,4.96069 4.9606886,4.9606895 0 0 1 -4.96069,-4.96069 4.9606886,4.9606895 0 0 1 4.96069,-4.96069 4.9606886,4.9606895 0 0 1 4.96069,4.96069"
             style="opacity:1;fill:#ffffff;fill-opacity:1;stroke:#373737;stroke-width:0;stroke-miterlimit:4;stroke-dasharray:none;stroke-opacity:1"
             id="path2744" />
        </g>
        <g
           style="fill:#ffffff;fill-opacity:1"
           id="g2754"
           transform="matrix(0.13695746,0.51113222,-0.51113222,0.13695746,-862.84454,190.9283)">
          <path
             d="m -871.33911,-299.46121 h 5.29167 v 120.5744 h -5.29167 z"
             style="opacity:1;fill:#ffffff;fill-opacity:1;stroke:#373737;stroke-width:0;stroke-miterlimit:4;stroke-dasharray:none;stroke-opacity:1"
             id="path2748" />
          <path
             d="m -863.73261,-297.76035 a 4.9606886,4.9606895 0 0 1 -4.96069,4.96069 4.9606886,4.9606895 0 0 1 -4.96069,-4.96069 4.9606886,4.9606895 0 0 1 4.96069,-4.96069 4.9606886,4.9606895 0 0 1 4.96069,4.96069"
             style="opacity:1;fill:#ffffff;fill-opacity:1;stroke:#373737;stroke-width:0;stroke-miterlimit:4;stroke-dasharray:none;stroke-opacity:1"
             id="path2750" />
          <path
             d="m -863.73261,-181.64604 a 4.9606886,4.9606895 0 0 1 -4.96069,4.96069 4.9606886,4.9606895 0 0 1 -4.96069,-4.96069 4.9606886,4.9606895 0 0 1 4.96069,-4.96069 4.9606886,4.9606895 0 0 1 4.96069,4.96069"
             style="opacity:1;fill:#ffffff;fill-opacity:1;stroke:#373737;stroke-width:0;stroke-miterlimit:4;stroke-dasharray:none;stroke-opacity:1"
             id="path2752" />
        </g>
        <g
           style="fill:#ffffff;fill-opacity:1"
           transform="matrix(0,0.52916301,-0.52916301,0,-986.14061,173.76239)"
           id="g2762">
          <path
             d="m -871.33911,-299.46121 h 5.29167 v 120.5744 h -5.29167 z"
             style="opacity:1;fill:#ffffff;fill-opacity:1;stroke:#373737;stroke-width:0;stroke-miterlimit:4;stroke-dasharray:none;stroke-opacity:1"
             id="path2756" />
          <path
             d="m -863.73261,-297.76035 a 4.9606886,4.9606895 0 0 1 -4.96069,4.96069 4.9606886,4.9606895 0 0 1 -4.96069,-4.96069 4.9606886,4.9606895 0 0 1 4.96069,-4.96069 4.9606886,4.9606895 0 0 1 4.96069,4.96069"
             style="opacity:1;fill:#ffffff;fill-opacity:1;stroke:#373737;stroke-width:0;stroke-miterlimit:4;stroke-dasharray:none;stroke-opacity:1"
             id="path2758" />
          <path
             d="m -863.73261,-181.64604 a 4.9606886,4.9606895 0 0 1 -4.96069,4.96069 4.9606886,4.9606895 0 0 1 -4.96069,-4.96069 4.9606886,4.9606895 0 0 1 4.96069,-4.96069 4.9606886,4.9606895 0 0 1 4.96069,4.96069"
             style="opacity:1;fill:#ffffff;fill-opacity:1;stroke:#373737;stroke-width:0;stroke-miterlimit:4;stroke-dasharray:none;stroke-opacity:1"
             id="path2760" />
        </g>
        <g
           style="fill:#ffffff;fill-opacity:1"
           id="g2770"
           transform="matrix(-0.13695746,0.51113222,-0.51113222,-0.13695746,-1100.7926,125.27002)">
          <path
             d="m -871.33911,-299.46121 h 5.29167 v 120.5744 h -5.29167 z"
             style="opacity:1;fill:#ffffff;fill-opacity:1;stroke:#373737;stroke-width:0;stroke-miterlimit:4;stroke-dasharray:none;stroke-opacity:1"
             id="path2764" />
          <path
             d="m -863.73261,-297.76035 a 4.9606886,4.9606895 0 0 1 -4.96069,4.96069 4.9606886,4.9606895 0 0 1 -4.96069,-4.96069 4.9606886,4.9606895 0 0 1 4.96069,-4.96069 4.9606886,4.9606895 0 0 1 4.96069,4.96069"
             style="opacity:1;fill:#ffffff;fill-opacity:1;stroke:#373737;stroke-width:0;stroke-miterlimit:4;stroke-dasharray:none;stroke-opacity:1"
             id="path2766" />
          <path
             d="m -863.73261,-181.64604 a 4.9606886,4.9606895 0 0 1 -4.96069,4.96069 4.9606886,4.9606895 0 0 1 -4.96069,-4.96069 4.9606886,4.9606895 0 0 1 4.96069,-4.96069 4.9606886,4.9606895 0 0 1 4.96069,4.96069"
             style="opacity:1;fill:#ffffff;fill-opacity:1;stroke:#373737;stroke-width:0;stroke-miterlimit:4;stroke-dasharray:none;stroke-opacity:1"
             id="path2768" />
        </g>
        <g
           style="fill:#ffffff;fill-opacity:1"
           transform="matrix(-0.2645815,0.45826861,-0.45826861,-0.2645815,-1198.9872,48.755868)"
           id="g2778">
          <path
             d="m -871.33911,-299.46121 h 5.29167 v 120.5744 h -5.29167 z"
             style="opacity:1;fill:#ffffff;fill-opacity:1;stroke:#373737;stroke-width:0;stroke-miterlimit:4;stroke-dasharray:none;stroke-opacity:1"
             id="path2772" />
          <path
             d="m -863.73261,-297.76035 a 4.9606886,4.9606895 0 0 1 -4.96069,4.96069 4.9606886,4.9606895 0 0 1 -4.96069,-4.96069 4.9606886,4.9606895 0 0 1 4.96069,-4.96069 4.9606886,4.9606895 0 0 1 4.96069,4.96069"
             style="opacity:1;fill:#ffffff;fill-opacity:1;stroke:#373737;stroke-width:0;stroke-miterlimit:4;stroke-dasharray:none;stroke-opacity:1"
             id="path2774" />
          <path
             d="m -863.73261,-181.64604 a 4.9606886,4.9606895 0 0 1 -4.96069,4.96069 4.9606886,4.9606895 0 0 1 -4.96069,-4.96069 4.9606886,4.9606895 0 0 1 4.96069,-4.96069 4.9606886,4.9606895 0 0 1 4.96069,4.96069"
             style="opacity:1;fill:#ffffff;fill-opacity:1;stroke:#373737;stroke-width:0;stroke-miterlimit:4;stroke-dasharray:none;stroke-opacity:1"
             id="path2776" />
        </g>
        <g
           style="fill:#ffffff;fill-opacity:1"
           id="g2786"
           transform="matrix(-0.37417475,0.37417475,-0.37417475,-0.37417475,-1274.0325,-50.565752)">
          <path
             d="m -871.33911,-299.46121 h 5.29167 v 120.5744 h -5.29167 z"
             style="opacity:1;fill:#ffffff;fill-opacity:1;stroke:#373737;stroke-width:0;stroke-miterlimit:4;stroke-dasharray:none;stroke-opacity:1"
             id="path2780" />
          <path
             d="m -863.73261,-297.76035 a 4.9606886,4.9606895 0 0 1 -4.96069,4.96069 4.9606886,4.9606895 0 0 1 -4.96069,-4.96069 4.9606886,4.9606895 0 0 1 4.96069,-4.96069 4.9606886,4.9606895 0 0 1 4.96069,4.96069"
             style="opacity:1;fill:#ffffff;fill-opacity:1;stroke:#373737;stroke-width:0;stroke-miterlimit:4;stroke-dasharray:none;stroke-opacity:1"
             id="path2782" />
          <path
             d="m -863.73261,-181.64604 a 4.9606886,4.9606895 0 0 1 -4.96069,4.96069 4.9606886,4.9606895 0 0 1 -4.96069,-4.96069 4.9606886,4.9606895 0 0 1 4.96069,-4.96069 4.9606886,4.9606895 0 0 1 4.96069,4.96069"
             style="opacity:1;fill:#ffffff;fill-opacity:1;stroke:#373737;stroke-width:0;stroke-miterlimit:4;stroke-dasharray:none;stroke-opacity:1"
             id="path2784" />
        </g>
        <g
           style="fill:#ffffff;fill-opacity:1"
           transform="matrix(-0.45826861,0.2645815,-0.2645815,-0.45826861,-1320.8144,-165.92624)"
           id="g2794">
          <path
             d="m -871.33911,-299.46121 h 5.29167 v 120.5744 h -5.29167 z"
             style="opacity:1;fill:#ffffff;fill-opacity:1;stroke:#373737;stroke-width:0;stroke-miterlimit:4;stroke-dasharray:none;stroke-opacity:1"
             id="path2788" />
          <path
             d="m -863.73261,-297.76035 a 4.9606886,4.9606895 0 0 1 -4.96069,4.96069 4.9606886,4.9606895 0 0 1 -4.96069,-4.96069 4.9606886,4.9606895 0 0 1 4.96069,-4.96069 4.9606886,4.9606895 0 0 1 4.96069,4.96069"
             style="opacity:1;fill:#ffffff;fill-opacity:1;stroke:#373737;stroke-width:0;stroke-miterlimit:4;stroke-dasharray:none;stroke-opacity:1"
             id="path2790" />
          <path
             d="m -863.73261,-181.64604 a 4.9606886,4.9606895 0 0 1 -4.96069,4.96069 4.9606886,4.9606895 0 0 1 -4.96069,-4.96069 4.9606886,4.9606895 0 0 1 4.96069,-4.96069 4.9606886,4.9606895 0 0 1 4.96069,4.96069"
             style="opacity:1;fill:#ffffff;fill-opacity:1;stroke:#373737;stroke-width:0;stroke-miterlimit:4;stroke-dasharray:none;stroke-opacity:1"
             id="path2792" />
        </g>
        <g
           style="fill:#ffffff;fill-opacity:1"
           id="g2802"
           transform="matrix(-0.51113222,0.13695746,-0.13695746,-0.51113222,-1336.1448,-289.46396)">
          <path
             d="m -871.33911,-299.46121 h 5.29167 v 120.5744 h -5.29167 z"
             style="opacity:1;fill:#ffffff;fill-opacity:1;stroke:#373737;stroke-width:0;stroke-miterlimit:4;stroke-dasharray:none;stroke-opacity:1"
             id="path2796" />
          <path
             d="m -863.73261,-297.76035 a 4.9606886,4.9606895 0 0 1 -4.96069,4.96069 4.9606886,4.9606895 0 0 1 -4.96069,-4.96069 4.9606886,4.9606895 0 0 1 4.96069,-4.96069 4.9606886,4.9606895 0 0 1 4.96069,4.96069"
             style="opacity:1;fill:#ffffff;fill-opacity:1;stroke:#373737;stroke-width:0;stroke-miterlimit:4;stroke-dasharray:none;stroke-opacity:1"
             id="path2798" />
          <path
             d="m -863.73261,-181.64604 a 4.9606886,4.9606895 0 0 1 -4.96069,4.96069 4.9606886,4.9606895 0 0 1 -4.96069,-4.96069 4.9606886,4.9606895 0 0 1 4.96069,-4.96069 4.9606886,4.9606895 0 0 1 4.96069,4.96069"
             style="opacity:1;fill:#ffffff;fill-opacity:1;stroke:#373737;stroke-width:0;stroke-miterlimit:4;stroke-dasharray:none;stroke-opacity:1"
             id="path2800" />
        </g>
      </g>
    </g>
  </g>
</svg>
