<?xml version="1.0" encoding="UTF-8"?>
<svg width="40" height="40" version="1.1" viewBox="0 0 10.583 10.583" xmlns="http://www.w3.org/2000/svg">
  <g transform="matrix(1.0116 0 0 1.0116 -.20503 -.01384)">
   <!-- Background -->
    <rect x=".2268" y=".037812" width="10.413" height="10.413" ry="2.7523" style="fill:#ff7070;stroke-width:.048263;stroke:#ff7070"/>
    <!-- Arrow -->
    <g transform="matrix(.36775 0 0 -.36775 -94.828 -157.77)">
      <!-- Arrow Tip -->
      <g style="stroke-width:1.2602" aria-label="^">
        <path d="m283.31-448.23q-0.26212-0.38311-0.56457-0.80654-0.30245-0.44359-0.62506-0.88718-0.30245-0.44359-0.56458-0.8267-0.26212 0.38311-0.56457 0.8267t-0.6049 0.88718q-0.30245 0.42343-0.56457 0.80654h-0.68555q0.6049-0.90735 1.2098-1.8147 0.60489-0.92751 1.2098-1.8349 0.6049 0.90735 1.2098 1.8349 0.62506 0.90735 1.23 1.8147z" style="fill:#fff;stroke-width:1.2602"/>
      </g>
      <!-- Arrow Stick -->
      <g transform="scale(1.0837 .92275)" style="stroke-width:1.1629" aria-label="|">
        <path d="m259.41-488.51h0.81865v17.433h-0.81865z" style="fill:#fff;stroke-width:1.1629"/>
      </g>
    </g>
    <!-- Virus -->
    <g transform="matrix(.09756 -.010075 .010075 .09756 91.413 24.644)" style="fill:#fff">
      <!-- Virus Core -->
      <path d="m-832.57-285.92a26.726 26.726 0 0 1-26.726 26.726 26.726 26.726 0 0 1-26.726-26.726 26.726 26.726 0 0 1 26.726-26.726 26.726 26.726 0 0 1 26.726 26.726" style="fill:#fff;stroke-width:0"/>
      <!-- 8D Virus Spikes -->
      <g transform="matrix(.52916 0 0 .52916 -399.62 -159.08)" style="fill:#fff">
        <path d="m-871.34-299.46h5.2917v120.57h-5.2917z" style="fill:#fff;stroke-width:0"/>
        <path d="m-863.73-297.76a4.9607 4.9607 0 0 1-4.9607 4.9607 4.9607 4.9607 0 0 1-4.9607-4.9607 4.9607 4.9607 0 0 1 4.9607-4.9607 4.9607 4.9607 0 0 1 4.9607 4.9607" style="fill:#fff;stroke-width:0"/>
        <path d="m-863.73-181.65a4.9607 4.9607 0 0 1-4.9607 4.9607 4.9607 4.9607 0 0 1-4.9607-4.9607 4.9607 4.9607 0 0 1 4.9607-4.9607 4.9607 4.9607 0 0 1 4.9607 4.9607" style="fill:#fff;stroke-width:0"/>
      </g>
      <g transform="matrix(.51113 .13696 -.13696 .51113 -448.11 -44.424)" style="fill:#fff">
        <path d="m-871.34-299.46h5.2917v120.57h-5.2917z" style="fill:#fff;stroke-width:0"/>
        <path d="m-863.73-297.76a4.9607 4.9607 0 0 1-4.9607 4.9607 4.9607 4.9607 0 0 1-4.9607-4.9607 4.9607 4.9607 0 0 1 4.9607-4.9607 4.9607 4.9607 0 0 1 4.9607 4.9607" style="fill:#fff;stroke-width:0"/>
        <path d="m-863.73-181.65a4.9607 4.9607 0 0 1-4.9607 4.9607 4.9607 4.9607 0 0 1-4.9607-4.9607 4.9607 4.9607 0 0 1 4.9607-4.9607 4.9607 4.9607 0 0 1 4.9607 4.9607" style="fill:#fff;stroke-width:0"/>
      </g>
      <g transform="matrix(.45827 .26458 -.26458 .45827 -524.62 53.771)" style="fill:#fff">
        <path d="m-871.34-299.46h5.2917v120.57h-5.2917z" style="fill:#fff;stroke-width:0"/>
        <path d="m-863.73-297.76a4.9607 4.9607 0 0 1-4.9607 4.9607 4.9607 4.9607 0 0 1-4.9607-4.9607 4.9607 4.9607 0 0 1 4.9607-4.9607 4.9607 4.9607 0 0 1 4.9607 4.9607" style="fill:#fff;stroke-width:0"/>
        <path d="m-863.73-181.65a4.9607 4.9607 0 0 1-4.9607 4.9607 4.9607 4.9607 0 0 1-4.9607-4.9607 4.9607 4.9607 0 0 1 4.9607-4.9607 4.9607 4.9607 0 0 1 4.9607 4.9607" style="fill:#fff;stroke-width:0"/>
      </g>
      <g transform="matrix(.37417 .37417 -.37417 .37417 -623.95 128.82)" style="fill:#fff">
        <path d="m-871.34-299.46h5.2917v120.57h-5.2917z" style="fill:#fff;stroke-width:0"/>
        <path d="m-863.73-297.76a4.9607 4.9607 0 0 1-4.9607 4.9607 4.9607 4.9607 0 0 1-4.9607-4.9607 4.9607 4.9607 0 0 1 4.9607-4.9607 4.9607 4.9607 0 0 1 4.9607 4.9607" style="fill:#fff;stroke-width:0"/>
        <path d="m-863.73-181.65a4.9607 4.9607 0 0 1-4.9607 4.9607 4.9607 4.9607 0 0 1-4.9607-4.9607 4.9607 4.9607 0 0 1 4.9607-4.9607 4.9607 4.9607 0 0 1 4.9607 4.9607" style="fill:#fff;stroke-width:0"/>
      </g>
      <g transform="matrix(.26458 .45827 -.45827 .26458 -739.31 175.6)" style="fill:#fff">
        <path d="m-871.34-299.46h5.2917v120.57h-5.2917z" style="fill:#fff;stroke-width:0"/>
        <path d="m-863.73-297.76a4.9607 4.9607 0 0 1-4.9607 4.9607 4.9607 4.9607 0 0 1-4.9607-4.9607 4.9607 4.9607 0 0 1 4.9607-4.9607 4.9607 4.9607 0 0 1 4.9607 4.9607" style="fill:#fff;stroke-width:0"/>
        <path d="m-863.73-181.65a4.9607 4.9607 0 0 1-4.9607 4.9607 4.9607 4.9607 0 0 1-4.9607-4.9607 4.9607 4.9607 0 0 1 4.9607-4.9607 4.9607 4.9607 0 0 1 4.9607 4.9607" style="fill:#fff;stroke-width:0"/>
      </g>
      <g transform="matrix(.13696 .51113 -.51113 .13696 -862.84 190.93)" style="fill:#fff">
        <path d="m-871.34-299.46h5.2917v120.57h-5.2917z" style="fill:#fff;stroke-width:0"/>
        <path d="m-863.73-297.76a4.9607 4.9607 0 0 1-4.9607 4.9607 4.9607 4.9607 0 0 1-4.9607-4.9607 4.9607 4.9607 0 0 1 4.9607-4.9607 4.9607 4.9607 0 0 1 4.9607 4.9607" style="fill:#fff;stroke-width:0"/>
        <path d="m-863.73-181.65a4.9607 4.9607 0 0 1-4.9607 4.9607 4.9607 4.9607 0 0 1-4.9607-4.9607 4.9607 4.9607 0 0 1 4.9607-4.9607 4.9607 4.9607 0 0 1 4.9607 4.9607" style="fill:#fff;stroke-width:0"/>
      </g>
      <g transform="matrix(0 .52916 -.52916 0 -986.14 173.76)" style="fill:#fff">
        <path d="m-871.34-299.46h5.2917v120.57h-5.2917z" style="fill:#fff;stroke-width:0"/>
        <path d="m-863.73-297.76a4.9607 4.9607 0 0 1-4.9607 4.9607 4.9607 4.9607 0 0 1-4.9607-4.9607 4.9607 4.9607 0 0 1 4.9607-4.9607 4.9607 4.9607 0 0 1 4.9607 4.9607" style="fill:#fff;stroke-width:0"/>
        <path d="m-863.73-181.65a4.9607 4.9607 0 0 1-4.9607 4.9607 4.9607 4.9607 0 0 1-4.9607-4.9607 4.9607 4.9607 0 0 1 4.9607-4.9607 4.9607 4.9607 0 0 1 4.9607 4.9607" style="fill:#fff;stroke-width:0"/>
      </g>
      <g transform="matrix(-.13696 .51113 -.51113 -.13696 -1100.8 125.27)" style="fill:#fff">
        <path d="m-871.34-299.46h5.2917v120.57h-5.2917z" style="fill:#fff;stroke-width:0"/>
        <path d="m-863.73-297.76a4.9607 4.9607 0 0 1-4.9607 4.9607 4.9607 4.9607 0 0 1-4.9607-4.9607 4.9607 4.9607 0 0 1 4.9607-4.9607 4.9607 4.9607 0 0 1 4.9607 4.9607" style="fill:#fff;stroke-width:0"/>
        <path d="m-863.73-181.65a4.9607 4.9607 0 0 1-4.9607 4.9607 4.9607 4.9607 0 0 1-4.9607-4.9607 4.9607 4.9607 0 0 1 4.9607-4.9607 4.9607 4.9607 0 0 1 4.9607 4.9607" style="fill:#fff;stroke-width:0"/>
      </g>
      <g transform="matrix(-.26458 .45827 -.45827 -.26458 -1199 48.756)" style="fill:#fff">
        <path d="m-871.34-299.46h5.2917v120.57h-5.2917z" style="fill:#fff;stroke-width:0"/>
        <path d="m-863.73-297.76a4.9607 4.9607 0 0 1-4.9607 4.9607 4.9607 4.9607 0 0 1-4.9607-4.9607 4.9607 4.9607 0 0 1 4.9607-4.9607 4.9607 4.9607 0 0 1 4.9607 4.9607" style="fill:#fff;stroke-width:0"/>
        <path d="m-863.73-181.65a4.9607 4.9607 0 0 1-4.9607 4.9607 4.9607 4.9607 0 0 1-4.9607-4.9607 4.9607 4.9607 0 0 1 4.9607-4.9607 4.9607 4.9607 0 0 1 4.9607 4.9607" style="fill:#fff;stroke-width:0"/>
      </g>
      <g transform="matrix(-.37417 .37417 -.37417 -.37417 -1274 -50.566)" style="fill:#fff">
        <path d="m-871.34-299.46h5.2917v120.57h-5.2917z" style="fill:#fff;stroke-width:0"/>
        <path d="m-863.73-297.76a4.9607 4.9607 0 0 1-4.9607 4.9607 4.9607 4.9607 0 0 1-4.9607-4.9607 4.9607 4.9607 0 0 1 4.9607-4.9607 4.9607 4.9607 0 0 1 4.9607 4.9607" style="fill:#fff;stroke-width:0"/>
        <path d="m-863.73-181.65a4.9607 4.9607 0 0 1-4.9607 4.9607 4.9607 4.9607 0 0 1-4.9607-4.9607 4.9607 4.9607 0 0 1 4.9607-4.9607 4.9607 4.9607 0 0 1 4.9607 4.9607" style="fill:#fff;stroke-width:0"/>
      </g>
      <g transform="matrix(-.45827 .26458 -.26458 -.45827 -1320.8 -165.93)" style="fill:#fff">
        <path d="m-871.34-299.46h5.2917v120.57h-5.2917z" style="fill:#fff;stroke-width:0"/>
        <path d="m-863.73-297.76a4.9607 4.9607 0 0 1-4.9607 4.9607 4.9607 4.9607 0 0 1-4.9607-4.9607 4.9607 4.9607 0 0 1 4.9607-4.9607 4.9607 4.9607 0 0 1 4.9607 4.9607" style="fill:#fff;stroke-width:0"/>
        <path d="m-863.73-181.65a4.9607 4.9607 0 0 1-4.9607 4.9607 4.9607 4.9607 0 0 1-4.9607-4.9607 4.9607 4.9607 0 0 1 4.9607-4.9607 4.9607 4.9607 0 0 1 4.9607 4.9607" style="fill:#fff;stroke-width:0"/>
      </g>
      <g transform="matrix(-.51113 .13696 -.13696 -.51113 -1336.1 -289.46)" style="fill:#fff">
        <path d="m-871.34-299.46h5.2917v120.57h-5.2917z" style="fill:#fff;stroke-width:0"/>
        <path d="m-863.73-297.76a4.9607 4.9607 0 0 1-4.9607 4.9607 4.9607 4.9607 0 0 1-4.9607-4.9607 4.9607 4.9607 0 0 1 4.9607-4.9607 4.9607 4.9607 0 0 1 4.9607 4.9607" style="fill:#fff;stroke-width:0"/>
        <path d="m-863.73-181.65a4.9607 4.9607 0 0 1-4.9607 4.9607 4.9607 4.9607 0 0 1-4.9607-4.9607 4.9607 4.9607 0 0 1 4.9607-4.9607 4.9607 4.9607 0 0 1 4.9607 4.9607" style="fill:#fff;stroke-width:0"/>
      </g>
    </g>
  </g>
</svg>
