<?xml version="1.0" encoding="UTF-8" standalone="no"?>
<svg
   xmlns:dc="http://purl.org/dc/elements/1.1/"
   xmlns:cc="http://creativecommons.org/ns#"
   xmlns:rdf="http://www.w3.org/1999/02/22-rdf-syntax-ns#"
   xmlns:svg="http://www.w3.org/2000/svg"
   xmlns="http://www.w3.org/2000/svg"
   xmlns:sodipodi="http://sodipodi.sourceforge.net/DTD/sodipodi-0.dtd"
   xmlns:inkscape="http://www.inkscape.org/namespaces/inkscape"
   width="40"
   height="40"
   viewBox="0 0 10.583333 10.583334"
   version="1.1"
   id="svg8"
   inkscape:version="1.0 (4035a4fb49, 2020-05-01)"
   sodipodi:docname="z_to_a_alphabetical_filter_icon.svg">
  <defs
     id="defs2" />
  <sodipodi:namedview
     id="base"
     pagecolor="#ffffff"
     bordercolor="#666666"
     borderopacity="1.0"
     inkscape:pageopacity="0.0"
     inkscape:pageshadow="2"
     inkscape:zoom="11.2"
     inkscape:cx="3.2288896"
     inkscape:cy="22.193169"
     inkscape:document-units="mm"
     inkscape:current-layer="g1209"
     inkscape:document-rotation="0"
     showgrid="false"
     units="px"
     inkscape:window-width="1920"
     inkscape:window-height="996"
     inkscape:window-x="-9"
     inkscape:window-y="44"
     inkscape:window-maximized="1" />
  <metadata
     id="metadata5">
    <rdf:RDF>
      <cc:Work
         rdf:about="">
        <dc:format>image/svg+xml</dc:format>
        <dc:type
           rdf:resource="http://purl.org/dc/dcmitype/StillImage" />
        <dc:title></dc:title>
      </cc:Work>
    </rdf:RDF>
  </metadata>
  <g
     inkscape:label="Layer 1"
     inkscape:groupmode="layer"
     id="layer1">
    <g
       id="g1209"
       transform="matrix(1.0116478,0,0,1.0116751,9.9997043,1.9937026)">
      <rect
         inkscape:export-ydpi="96"
         inkscape:export-xdpi="96"
         ry="2.7522545"
         y="-1.9465631"
         x="-9.8604393"
         height="10.413216"
         width="10.413215"
         id="rect2678"
         style="fill:#ff7070;fill-opacity:1;stroke:#ff7070;stroke-width:0.0482629;stroke-miterlimit:4;stroke-dasharray:none;stroke-opacity:1" />
      <g
         style="font-size:7.41513px;line-height:1.25;font-family:Arial;-inkscape-font-specification:Arial;letter-spacing:0px;word-spacing:0px;stroke-width:0.463447"
         id="text2682"
         aria-label="Z">
        <path
           id="path845"
           style="font-style:normal;font-variant:normal;font-weight:300;font-stretch:normal;font-family:'Josefin Sans';-inkscape-font-specification:'Josefin Sans Light';fill:#ffffff;fill-opacity:1;stroke-width:0.463447"
           d="M -7.9837643,6.0338449 Q -7.8132163,5.7965608 -7.6055927,5.5073707 -7.397969,5.2181806 -7.1681,4.8919149 -6.9308158,4.5582341 -6.6861165,4.2097229 -6.4340021,3.8537967 -6.1744726,3.4978704 -5.914943,3.1419442 -5.6702437,2.8008482 -5.4181293,2.4523371 -5.1882603,2.1334865 -4.9509761,1.8072208 -4.7433525,1.5254458 -4.5357288,1.2436709 -4.3651808,1.021217 l 0.066736,0.096397 h -2.9734672 q -0.1334724,0 -0.2446993,-0.037076 -0.111227,-0.037076 -0.1779631,-0.11864207 -0.066736,-0.0815664 -0.066736,-0.2224539 V 0.50957299 h 0.3485111 v 0.0889816 q 0,0.0963967 0.051906,0.13347234 0.051906,0.0370757 0.1779631,0.0370757 h 3.3887145 L -7.397969,5.7446549 -7.4276296,5.6853338 h 3.8113769 v 0.3485111 z" />
      </g>
      <g
         inkscape:export-ydpi="96"
         inkscape:export-xdpi="96"
         transform="matrix(0.36775329,0,0,-0.36775329,-105.69385,-159.75815)"
         id="g2692">
        <g
           style="font-size:20.1633px;line-height:1.25;font-family:Arial;-inkscape-font-specification:Arial;letter-spacing:0px;word-spacing:0px;stroke-width:1.26021"
           id="text2686"
           aria-label="^">
          <path
             id="path839"
             style="font-style:normal;font-variant:normal;font-weight:300;font-stretch:normal;font-family:'Josefin Sans';-inkscape-font-specification:'Josefin Sans Light';fill:#ffffff;fill-opacity:1;stroke-width:1.26021"
             d="m 283.31218,-448.23067 q -0.26212,-0.38311 -0.56457,-0.80654 -0.30245,-0.44359 -0.62506,-0.88718 -0.30245,-0.44359 -0.56458,-0.8267 -0.26212,0.38311 -0.56457,0.8267 -0.30245,0.44359 -0.6049,0.88718 -0.30245,0.42343 -0.56457,0.80654 h -0.68555 q 0.6049,-0.90735 1.2098,-1.8147 0.60489,-0.92751 1.20979,-1.83486 v 0 q 0.6049,0.90735 1.2098,1.83486 0.62506,0.90735 1.22996,1.8147 z" />
        </g>
        <g
           style="font-size:18.6056px;line-height:1.25;font-family:Arial;-inkscape-font-specification:Arial;letter-spacing:0px;word-spacing:0px;stroke-width:1.16286"
           id="text2690"
           transform="scale(1.0837207,0.92274699)"
           aria-label="|">
          <path
             id="path842"
             style="font-style:normal;font-variant:normal;font-weight:300;font-stretch:normal;font-family:'Josefin Sans';-inkscape-font-specification:'Josefin Sans Light';fill:#ffffff;fill-opacity:1;stroke-width:1.16286"
             d="m 259.40674,-488.50789 h 0.81865 v 17.43345 h -0.81865 z" />
        </g>
      </g>
    </g>
  </g>
</svg>
