<?xml version="1.0" encoding="UTF-8"?>
<svg width="40" height="40" version="1.1" viewBox="0 0 10.583 10.583" xmlns="http://www.w3.org/2000/svg">
  <!-- Background -->
  <rect x=".024413" y=".024413" width="10.535" height="10.535" ry="2.7843" fill="#ff7070" stroke="#ff7070" stroke-width=".048825"/>
  <!-- Arrow -->
  <g transform="matrix(.37204 0 0 .37204 -96.138 170.21)">
    <!-- Arrow Tip -->
    <g stroke-width="1.2602" aria-label="^">
      <path d="m283.31-448.23q-0.26212-0.38311-0.56457-0.80654-0.30245-0.44359-0.62506-0.88718-0.30245-0.44359-0.56458-0.8267-0.26212 0.38311-0.56457 0.8267t-0.6049 0.88718q-0.30245 0.42343-0.56457 0.80654h-0.68555q0.6049-0.90735 1.2098-1.8147 0.60489-0.92751 1.2098-1.8349 0.6049 0.90735 1.2098 1.8349 0.62506 0.90735 1.23 1.8147z" fill="#fff" stroke-width="1.2602"/>
    </g>
    <!-- Arrow Stick -->
    <g transform="scale(1.0837 .92275)" stroke-width="1.1629" aria-label="|">
      <path d="m259.41-488.51h0.81865v17.433h-0.81865z" fill="#fff" stroke-width="1.1629"/>
    </g>
  </g>
  <!-- Virus -->
  <g transform="matrix(.098696 -.010192 .010192 .098696 92.273 24.917)" fill="#fff" stroke-width="0">
    <!-- Virus Core -->
    <path d="m-832.57-285.92a26.726 26.726 0 0 1-26.726 26.726 26.726 26.726 0 0 1-26.726-26.726 26.726 26.726 0 0 1 26.726-26.726 26.726 26.726 0 0 1 26.726 26.726"/>
    <!-- 8D Virus Spikes -->
    <g transform="matrix(.52916 0 0 .52916 -399.62 -159.08)">
      <path d="m-871.34-299.46h5.2917v120.57h-5.2917z"/>
      <path d="m-863.73-297.76a4.9607 4.9607 0 0 1-4.9607 4.9607 4.9607 4.9607 0 0 1-4.9607-4.9607 4.9607 4.9607 0 0 1 4.9607-4.9607 4.9607 4.9607 0 0 1 4.9607 4.9607"/>
      <path d="m-863.73-181.65a4.9607 4.9607 0 0 1-4.9607 4.9607 4.9607 4.9607 0 0 1-4.9607-4.9607 4.9607 4.9607 0 0 1 4.9607-4.9607 4.9607 4.9607 0 0 1 4.9607 4.9607"/>
    </g>
    <g transform="matrix(.51113 .13696 -.13696 .51113 -448.11 -44.424)">
      <path d="m-871.34-299.46h5.2917v120.57h-5.2917z"/>
      <path d="m-863.73-297.76a4.9607 4.9607 0 0 1-4.9607 4.9607 4.9607 4.9607 0 0 1-4.9607-4.9607 4.9607 4.9607 0 0 1 4.9607-4.9607 4.9607 4.9607 0 0 1 4.9607 4.9607"/>
      <path d="m-863.73-181.65a4.9607 4.9607 0 0 1-4.9607 4.9607 4.9607 4.9607 0 0 1-4.9607-4.9607 4.9607 4.9607 0 0 1 4.9607-4.9607 4.9607 4.9607 0 0 1 4.9607 4.9607"/>
    </g>
    <g transform="matrix(.45827 .26458 -.26458 .45827 -524.62 53.771)">
      <path d="m-871.34-299.46h5.2917v120.57h-5.2917z"/>
      <path d="m-863.73-297.76a4.9607 4.9607 0 0 1-4.9607 4.9607 4.9607 4.9607 0 0 1-4.9607-4.9607 4.9607 4.9607 0 0 1 4.9607-4.9607 4.9607 4.9607 0 0 1 4.9607 4.9607"/>
      <path d="m-863.73-181.65a4.9607 4.9607 0 0 1-4.9607 4.9607 4.9607 4.9607 0 0 1-4.9607-4.9607 4.9607 4.9607 0 0 1 4.9607-4.9607 4.9607 4.9607 0 0 1 4.9607 4.9607"/>
    </g>
    <g transform="matrix(.37417 .37417 -.37417 .37417 -623.95 128.82)">
      <path d="m-871.34-299.46h5.2917v120.57h-5.2917z"/>
      <path d="m-863.73-297.76a4.9607 4.9607 0 0 1-4.9607 4.9607 4.9607 4.9607 0 0 1-4.9607-4.9607 4.9607 4.9607 0 0 1 4.9607-4.9607 4.9607 4.9607 0 0 1 4.9607 4.9607"/>
      <path d="m-863.73-181.65a4.9607 4.9607 0 0 1-4.9607 4.9607 4.9607 4.9607 0 0 1-4.9607-4.9607 4.9607 4.9607 0 0 1 4.9607-4.9607 4.9607 4.9607 0 0 1 4.9607 4.9607"/>
    </g>
    <g transform="matrix(.26458 .45827 -.45827 .26458 -739.31 175.6)">
      <path d="m-871.34-299.46h5.2917v120.57h-5.2917z"/>
      <path d="m-863.73-297.76a4.9607 4.9607 0 0 1-4.9607 4.9607 4.9607 4.9607 0 0 1-4.9607-4.9607 4.9607 4.9607 0 0 1 4.9607-4.9607 4.9607 4.9607 0 0 1 4.9607 4.9607"/>
      <path d="m-863.73-181.65a4.9607 4.9607 0 0 1-4.9607 4.9607 4.9607 4.9607 0 0 1-4.9607-4.9607 4.9607 4.9607 0 0 1 4.9607-4.9607 4.9607 4.9607 0 0 1 4.9607 4.9607"/>
    </g>
    <g transform="matrix(.13696 .51113 -.51113 .13696 -862.84 190.93)">
      <path d="m-871.34-299.46h5.2917v120.57h-5.2917z"/>
      <path d="m-863.73-297.76a4.9607 4.9607 0 0 1-4.9607 4.9607 4.9607 4.9607 0 0 1-4.9607-4.9607 4.9607 4.9607 0 0 1 4.9607-4.9607 4.9607 4.9607 0 0 1 4.9607 4.9607"/>
      <path d="m-863.73-181.65a4.9607 4.9607 0 0 1-4.9607 4.9607 4.9607 4.9607 0 0 1-4.9607-4.9607 4.9607 4.9607 0 0 1 4.9607-4.9607 4.9607 4.9607 0 0 1 4.9607 4.9607"/>
    </g>
    <g transform="matrix(0 .52916 -.52916 0 -986.14 173.76)">
      <path d="m-871.34-299.46h5.2917v120.57h-5.2917z"/>
      <path d="m-863.73-297.76a4.9607 4.9607 0 0 1-4.9607 4.9607 4.9607 4.9607 0 0 1-4.9607-4.9607 4.9607 4.9607 0 0 1 4.9607-4.9607 4.9607 4.9607 0 0 1 4.9607 4.9607"/>
      <path d="m-863.73-181.65a4.9607 4.9607 0 0 1-4.9607 4.9607 4.9607 4.9607 0 0 1-4.9607-4.9607 4.9607 4.9607 0 0 1 4.9607-4.9607 4.9607 4.9607 0 0 1 4.9607 4.9607"/>
    </g>
    <g transform="matrix(-.13696 .51113 -.51113 -.13696 -1100.8 125.27)">
      <path d="m-871.34-299.46h5.2917v120.57h-5.2917z"/>
      <path d="m-863.73-297.76a4.9607 4.9607 0 0 1-4.9607 4.9607 4.9607 4.9607 0 0 1-4.9607-4.9607 4.9607 4.9607 0 0 1 4.9607-4.9607 4.9607 4.9607 0 0 1 4.9607 4.9607"/>
      <path d="m-863.73-181.65a4.9607 4.9607 0 0 1-4.9607 4.9607 4.9607 4.9607 0 0 1-4.9607-4.9607 4.9607 4.9607 0 0 1 4.9607-4.9607 4.9607 4.9607 0 0 1 4.9607 4.9607"/>
    </g>
    <g transform="matrix(-.26458 .45827 -.45827 -.26458 -1199 48.756)">
      <path d="m-871.34-299.46h5.2917v120.57h-5.2917z"/>
      <path d="m-863.73-297.76a4.9607 4.9607 0 0 1-4.9607 4.9607 4.9607 4.9607 0 0 1-4.9607-4.9607 4.9607 4.9607 0 0 1 4.9607-4.9607 4.9607 4.9607 0 0 1 4.9607 4.9607"/>
      <path d="m-863.73-181.65a4.9607 4.9607 0 0 1-4.9607 4.9607 4.9607 4.9607 0 0 1-4.9607-4.9607 4.9607 4.9607 0 0 1 4.9607-4.9607 4.9607 4.9607 0 0 1 4.9607 4.9607"/>
    </g>
    <g transform="matrix(-.37417 .37417 -.37417 -.37417 -1274 -50.566)">
      <path d="m-871.34-299.46h5.2917v120.57h-5.2917z"/>
      <path d="m-863.73-297.76a4.9607 4.9607 0 0 1-4.9607 4.9607 4.9607 4.9607 0 0 1-4.9607-4.9607 4.9607 4.9607 0 0 1 4.9607-4.9607 4.9607 4.9607 0 0 1 4.9607 4.9607"/>
      <path d="m-863.73-181.65a4.9607 4.9607 0 0 1-4.9607 4.9607 4.9607 4.9607 0 0 1-4.9607-4.9607 4.9607 4.9607 0 0 1 4.9607-4.9607 4.9607 4.9607 0 0 1 4.9607 4.9607"/>
    </g>
    <g transform="matrix(-.45827 .26458 -.26458 -.45827 -1320.8 -165.93)">
      <path d="m-871.34-299.46h5.2917v120.57h-5.2917z"/>
      <path d="m-863.73-297.76a4.9607 4.9607 0 0 1-4.9607 4.9607 4.9607 4.9607 0 0 1-4.9607-4.9607 4.9607 4.9607 0 0 1 4.9607-4.9607 4.9607 4.9607 0 0 1 4.9607 4.9607"/>
      <path d="m-863.73-181.65a4.9607 4.9607 0 0 1-4.9607 4.9607 4.9607 4.9607 0 0 1-4.9607-4.9607 4.9607 4.9607 0 0 1 4.9607-4.9607 4.9607 4.9607 0 0 1 4.9607 4.9607"/>
    </g>
    <g transform="matrix(-.51113 .13696 -.13696 -.51113 -1336.1 -289.46)">
      <path d="m-871.34-299.46h5.2917v120.57h-5.2917z"/>
      <path d="m-863.73-297.76a4.9607 4.9607 0 0 1-4.9607 4.9607 4.9607 4.9607 0 0 1-4.9607-4.9607 4.9607 4.9607 0 0 1 4.9607-4.9607 4.9607 4.9607 0 0 1 4.9607 4.9607"/>
      <path d="m-863.73-181.65a4.9607 4.9607 0 0 1-4.9607 4.9607 4.9607 4.9607 0 0 1-4.9607-4.9607 4.9607 4.9607 0 0 1 4.9607-4.9607 4.9607 4.9607 0 0 1 4.9607 4.9607"/>
    </g>
  </g>
</svg>
