<?xml version="1.0" encoding="UTF-8"?>
<svg width="43.2" height="43.2" version="1.1" viewBox="0 0 11.43 11.43" xmlns="http://www.w3.org/2000/svg">
  <!-- Gradient Definition -->
  <defs>
    <radialGradient id="radialGradient1832" cx="-1180.2" cy="-427.16" r="16.68" gradientTransform="matrix(1.0855 1.1979 -1.2778 1.1579 -444.9 1481.2)" gradientUnits="userSpaceOnUse">
      <stop stop-color="#f60000" offset="0"/>
      <stop stop-color="#f60000" stop-opacity="0" offset="1"/>
    </radialGradient>
  </defs>
  <!-- Globe -->
  <g transform="matrix(1.295 0 0 1.2951 377.24 682.49)">
    <g shape-rendering="auto">
      <path d="m-282.68-522.58c0 2.3268-1.8863 4.2131-4.2131 4.2131s-4.2131-1.8863-4.2131-4.2131 1.8863-4.2131 4.2131-4.2131 4.2131 1.8863 4.2131 4.2131" color="#000000" color-rendering="auto" dominant-baseline="auto" fill-opacity="0" image-rendering="auto" solid-color="#000000" stop-color="#000000"/>
      <path transform="matrix(.26458 0 0 .26458 25.37 -409.56)" d="m-1180.2-443.84c-9.2029 0-16.684 7.4729-16.684 16.676 0 9.2028 7.4807 16.682 16.684 16.682 9.2029 0 16.676-7.4788 16.676-16.682 1e-4 -9.2029-7.4729-16.676-16.676-16.676zm-1.7265 1.6172c-1.4408 1.3386-3.8018 3.8159-5.5528 7.0625h-5.5976c2.3884-3.838 6.4339-6.5294 11.15-7.0625zm3.4531 0c4.7165 0.53303 8.762 3.2245 11.15 7.0625h-5.5977c-1.7509-3.2466-4.1119-5.7239-5.5527-7.0625zm-2.2285 0.49024v6.5723h-5.4102c1.8626-3.2893 4.3249-5.6285 5.4102-6.5723zm1.0039 0c1.0852 0.94377 3.5476 3.283 5.4101 6.5723h-5.4101zm-13.955 7.5703h5.6777c-0.9182 1.9378-1.5798 4.0967-1.6757 6.4141h-5.6895c0.088-2.3088 0.6817-4.4835 1.6875-6.4141zm7.0059 0h5.9453v6.4141h-7.6563c0.1005-2.3455 0.7705-4.5144 1.711-6.4141zm6.9492 0h5.9453c0.9405 1.8997 1.6105 4.0685 1.7109 6.4141h-7.6562zm7.2734 0h5.6778c1.0058 1.9305 1.5996 4.1052 1.6875 6.4141h-5.6895c-0.096-2.3174-0.7575-4.4762-1.6758-6.4141zm-22.924 7.4102h5.6914c0.068 2.3166 0.7031 4.4721 1.6035 6.4082h-5.6855c-0.9758-1.9353-1.5475-4.1056-1.6094-6.4082zm6.9805 0h7.666v6.4082h-6.0196c-0.9237-1.8994-1.5753-4.0613-1.6464-6.4082zm8.6699 0h7.666c-0.071 2.3469-0.7227 4.5088-1.6465 6.4082h-6.0195zm8.9551 0h5.6914c-0.062 2.3026-0.6337 4.4729-1.6094 6.4082h-5.6856c0.9005-1.9361 1.5357-4.0916 1.6036-6.4082zm-22.44 7.4121h5.6152c1.8078 3.4012 4.2996 5.9428 5.7461 7.2578-4.8329-0.51228-8.9704-3.2963-11.361-7.2578zm6.9902 0h5.4903v6.6641c-1.1024-0.94789-3.621-3.3194-5.4903-6.6641zm6.4942 0h5.4902c-1.8692 3.3446-4.3879 5.7162-5.4902 6.6641zm6.8652 0h5.6153c-2.3909 3.9615-6.5284 6.7456-11.361 7.2578 1.4465-1.315 3.9384-3.8566 5.7461-7.2578z" color="#000000" color-rendering="auto" dominant-baseline="auto" fill="url(#radialGradient1832)" image-rendering="auto" solid-color="#000000" stop-color="#000000"/>
    </g>
    <g transform="matrix(1.2651 0 0 1 76.06 0)">
      <path d="m-285.04-522.58c0 2.3636-1.8465 4.1616-1.8465 4.1616s-1.8464-1.798-1.8464-4.1616 1.8464-4.1852 1.8464-4.1852 1.8465 1.8216 1.8465 4.1852" color="#000000" color-rendering="auto" dominant-baseline="auto" fill-opacity="0" image-rendering="auto" shape-rendering="auto" solid-color="#000000" stop-color="#000000"/>
    </g>
    <path d="m-286.89-526.86v8.5594z" color="#000000" color-rendering="auto" dominant-baseline="auto" image-rendering="auto" shape-rendering="auto" solid-color="#000000" stop-color="#000000"/>
    <path d="m-282.61-522.6h-8.5594z" color="#000000" color-rendering="auto" dominant-baseline="auto" image-rendering="auto" shape-rendering="auto" solid-color="#000000" stop-color="#000000"/>
    <path d="m-283.11-524.56h-7.5908z" color="#000000" color-rendering="auto" dominant-baseline="auto" image-rendering="auto" shape-rendering="auto" solid-color="#000000" stop-color="#000000"/>
    <path d="m-283.13-520.64h-7.5672z" color="#000000" color-rendering="auto" dominant-baseline="auto" image-rendering="auto" shape-rendering="auto" solid-color="#000000" stop-color="#000000"/>
  </g>
</svg>
