<?xml version="1.0" encoding="UTF-8"?>
<svg width="58.5" height="58.5" version="1.1" viewBox="0 0 15.478 15.478" xmlns="http://www.w3.org/2000/svg">
  <g transform="matrix(2.7771 0 0 2.7767 959.92 1819.5)">
    <!-- Virus Icon -->
    <g transform="matrix(.083533 -.0086277 .0086264 .083545 -268.62 -636.03)" style="fill:#f60000">
      <!-- Virus Core -->
      <path d="m-832.57-285.92a26.726 26.726 0 0 1-26.726 26.726 26.726 26.726 0 0 1-26.726-26.726 26.726 26.726 0 0 1 26.726-26.726 26.726 26.726 0 0 1 26.726 26.726" style="fill:#f60000;stroke-width:0"/>
      <!-- 8D Virus Spikes -->
      <g transform="matrix(.52916 0 0 .52916 -399.62 -159.08)" style="fill:#f60000">
        <path d="m-871.34-299.46h5.2917v120.57h-5.2917z" style="fill:#f60000;stroke-width:0"/>
        <path d="m-863.73-297.76a4.9607 4.9607 0 0 1-4.9607 4.9607 4.9607 4.9607 0 0 1-4.9607-4.9607 4.9607 4.9607 0 0 1 4.9607-4.9607 4.9607 4.9607 0 0 1 4.9607 4.9607" style="fill:#f60000;stroke-width:0"/>
        <path d="m-863.73-181.65a4.9607 4.9607 0 0 1-4.9607 4.9607 4.9607 4.9607 0 0 1-4.9607-4.9607 4.9607 4.9607 0 0 1 4.9607-4.9607 4.9607 4.9607 0 0 1 4.9607 4.9607" style="fill:#f60000;stroke-width:0"/>
      </g>
      <g transform="matrix(.51113 .13696 -.13696 .51113 -448.11 -44.424)" style="fill:#f60000">
        <path d="m-871.34-299.46h5.2917v120.57h-5.2917z" style="fill:#f60000;stroke-width:0"/>
        <path d="m-863.73-297.76a4.9607 4.9607 0 0 1-4.9607 4.9607 4.9607 4.9607 0 0 1-4.9607-4.9607 4.9607 4.9607 0 0 1 4.9607-4.9607 4.9607 4.9607 0 0 1 4.9607 4.9607" style="fill:#f60000;stroke-width:0"/>
        <path d="m-863.73-181.65a4.9607 4.9607 0 0 1-4.9607 4.9607 4.9607 4.9607 0 0 1-4.9607-4.9607 4.9607 4.9607 0 0 1 4.9607-4.9607 4.9607 4.9607 0 0 1 4.9607 4.9607" style="fill:#f60000;stroke-width:0"/>
      </g>
      <g transform="matrix(.45827 .26458 -.26458 .45827 -524.62 53.771)" style="fill:#f60000">
        <path d="m-871.34-299.46h5.2917v120.57h-5.2917z" style="fill:#f60000;stroke-width:0"/>
        <path d="m-863.73-297.76a4.9607 4.9607 0 0 1-4.9607 4.9607 4.9607 4.9607 0 0 1-4.9607-4.9607 4.9607 4.9607 0 0 1 4.9607-4.9607 4.9607 4.9607 0 0 1 4.9607 4.9607" style="fill:#f60000;stroke-width:0"/>
        <path d="m-863.73-181.65a4.9607 4.9607 0 0 1-4.9607 4.9607 4.9607 4.9607 0 0 1-4.9607-4.9607 4.9607 4.9607 0 0 1 4.9607-4.9607 4.9607 4.9607 0 0 1 4.9607 4.9607" style="fill:#f60000;stroke-width:0"/>
      </g>
      <g transform="matrix(.37417 .37417 -.37417 .37417 -623.95 128.82)" style="fill:#f60000">
        <path d="m-871.34-299.46h5.2917v120.57h-5.2917z" style="fill:#f60000;stroke-width:0"/>
        <path d="m-863.73-297.76a4.9607 4.9607 0 0 1-4.9607 4.9607 4.9607 4.9607 0 0 1-4.9607-4.9607 4.9607 4.9607 0 0 1 4.9607-4.9607 4.9607 4.9607 0 0 1 4.9607 4.9607" style="fill:#f60000;stroke-width:0"/>
        <path d="m-863.73-181.65a4.9607 4.9607 0 0 1-4.9607 4.9607 4.9607 4.9607 0 0 1-4.9607-4.9607 4.9607 4.9607 0 0 1 4.9607-4.9607 4.9607 4.9607 0 0 1 4.9607 4.9607" style="fill:#f60000;stroke-width:0"/>
      </g>
      <g transform="matrix(.26458 .45827 -.45827 .26458 -739.31 175.6)" style="fill:#f60000">
        <path d="m-871.34-299.46h5.2917v120.57h-5.2917z" style="fill:#f60000;stroke-width:0"/>
        <path d="m-863.73-297.76a4.9607 4.9607 0 0 1-4.9607 4.9607 4.9607 4.9607 0 0 1-4.9607-4.9607 4.9607 4.9607 0 0 1 4.9607-4.9607 4.9607 4.9607 0 0 1 4.9607 4.9607" style="fill:#f60000;stroke-width:0"/>
        <path d="m-863.73-181.65a4.9607 4.9607 0 0 1-4.9607 4.9607 4.9607 4.9607 0 0 1-4.9607-4.9607 4.9607 4.9607 0 0 1 4.9607-4.9607 4.9607 4.9607 0 0 1 4.9607 4.9607" style="fill:#f60000;stroke-width:0"/>
      </g>
      <g transform="matrix(.13696 .51113 -.51113 .13696 -862.84 190.93)" style="fill:#f60000">
        <path d="m-871.34-299.46h5.2917v120.57h-5.2917z" style="fill:#f60000;stroke-width:0"/>
        <path d="m-863.73-297.76a4.9607 4.9607 0 0 1-4.9607 4.9607 4.9607 4.9607 0 0 1-4.9607-4.9607 4.9607 4.9607 0 0 1 4.9607-4.9607 4.9607 4.9607 0 0 1 4.9607 4.9607" style="fill:#f60000;stroke-width:0"/>
        <path d="m-863.73-181.65a4.9607 4.9607 0 0 1-4.9607 4.9607 4.9607 4.9607 0 0 1-4.9607-4.9607 4.9607 4.9607 0 0 1 4.9607-4.9607 4.9607 4.9607 0 0 1 4.9607 4.9607" style="fill:#f60000;stroke-width:0"/>
      </g>
      <g transform="matrix(0 .52916 -.52916 0 -986.14 173.76)" style="fill:#f60000">
        <path d="m-871.34-299.46h5.2917v120.57h-5.2917z" style="fill:#f60000;stroke-width:0"/>
        <path d="m-863.73-297.76a4.9607 4.9607 0 0 1-4.9607 4.9607 4.9607 4.9607 0 0 1-4.9607-4.9607 4.9607 4.9607 0 0 1 4.9607-4.9607 4.9607 4.9607 0 0 1 4.9607 4.9607" style="fill:#f60000;stroke-width:0"/>
        <path d="m-863.73-181.65a4.9607 4.9607 0 0 1-4.9607 4.9607 4.9607 4.9607 0 0 1-4.9607-4.9607 4.9607 4.9607 0 0 1 4.9607-4.9607 4.9607 4.9607 0 0 1 4.9607 4.9607" style="fill:#f60000;stroke-width:0"/>
      </g>
      <g transform="matrix(-.13696 .51113 -.51113 -.13696 -1100.8 125.27)" style="fill:#f60000">
        <path d="m-871.34-299.46h5.2917v120.57h-5.2917z" style="fill:#f60000;stroke-width:0"/>
        <path d="m-863.73-297.76a4.9607 4.9607 0 0 1-4.9607 4.9607 4.9607 4.9607 0 0 1-4.9607-4.9607 4.9607 4.9607 0 0 1 4.9607-4.9607 4.9607 4.9607 0 0 1 4.9607 4.9607" style="fill:#f60000;stroke-width:0"/>
        <path d="m-863.73-181.65a4.9607 4.9607 0 0 1-4.9607 4.9607 4.9607 4.9607 0 0 1-4.9607-4.9607 4.9607 4.9607 0 0 1 4.9607-4.9607 4.9607 4.9607 0 0 1 4.9607 4.9607" style="fill:#f60000;stroke-width:0"/>
      </g>
      <g transform="matrix(-.26458 .45827 -.45827 -.26458 -1199 48.756)" style="fill:#f60000">
        <path d="m-871.34-299.46h5.2917v120.57h-5.2917z" style="fill:#f60000;stroke-width:0"/>
        <path d="m-863.73-297.76a4.9607 4.9607 0 0 1-4.9607 4.9607 4.9607 4.9607 0 0 1-4.9607-4.9607 4.9607 4.9607 0 0 1 4.9607-4.9607 4.9607 4.9607 0 0 1 4.9607 4.9607" style="fill:#f60000;stroke-width:0"/>
        <path d="m-863.73-181.65a4.9607 4.9607 0 0 1-4.9607 4.9607 4.9607 4.9607 0 0 1-4.9607-4.9607 4.9607 4.9607 0 0 1 4.9607-4.9607 4.9607 4.9607 0 0 1 4.9607 4.9607" style="fill:#f60000;stroke-width:0"/>
      </g>
      <g transform="matrix(-.37417 .37417 -.37417 -.37417 -1274 -50.566)" style="fill:#f60000">
        <path d="m-871.34-299.46h5.2917v120.57h-5.2917z" style="fill:#f60000;stroke-width:0"/>
        <path d="m-863.73-297.76a4.9607 4.9607 0 0 1-4.9607 4.9607 4.9607 4.9607 0 0 1-4.9607-4.9607 4.9607 4.9607 0 0 1 4.9607-4.9607 4.9607 4.9607 0 0 1 4.9607 4.9607" style="fill:#f60000;stroke-width:0"/>
        <path d="m-863.73-181.65a4.9607 4.9607 0 0 1-4.9607 4.9607 4.9607 4.9607 0 0 1-4.9607-4.9607 4.9607 4.9607 0 0 1 4.9607-4.9607 4.9607 4.9607 0 0 1 4.9607 4.9607" style="fill:#f60000;stroke-width:0"/>
      </g>
      <g transform="matrix(-.45827 .26458 -.26458 -.45827 -1320.8 -165.93)" style="fill:#f60000">
        <path d="m-871.34-299.46h5.2917v120.57h-5.2917z" style="fill:#f60000;stroke-width:0"/>
        <path d="m-863.73-297.76a4.9607 4.9607 0 0 1-4.9607 4.9607 4.9607 4.9607 0 0 1-4.9607-4.9607 4.9607 4.9607 0 0 1 4.9607-4.9607 4.9607 4.9607 0 0 1 4.9607 4.9607" style="fill:#f60000;stroke-width:0"/>
        <path d="m-863.73-181.65a4.9607 4.9607 0 0 1-4.9607 4.9607 4.9607 4.9607 0 0 1-4.9607-4.9607 4.9607 4.9607 0 0 1 4.9607-4.9607 4.9607 4.9607 0 0 1 4.9607 4.9607" style="fill:#f60000;stroke-width:0"/>
      </g>
      <g transform="matrix(-.51113 .13696 -.13696 -.51113 -1336.1 -289.46)" style="fill:#f60000">
        <path d="m-871.34-299.46h5.2917v120.57h-5.2917z" style="fill:#f60000;stroke-width:0"/>
        <path d="m-863.73-297.76a4.9607 4.9607 0 0 1-4.9607 4.9607 4.9607 4.9607 0 0 1-4.9607-4.9607 4.9607 4.9607 0 0 1 4.9607-4.9607 4.9607 4.9607 0 0 1 4.9607 4.9607" style="fill:#f60000;stroke-width:0"/>
        <path d="m-863.73-181.65a4.9607 4.9607 0 0 1-4.9607 4.9607 4.9607 4.9607 0 0 1-4.9607-4.9607 4.9607 4.9607 0 0 1 4.9607-4.9607 4.9607 4.9607 0 0 1 4.9607 4.9607" style="fill:#f60000;stroke-width:0"/>
      </g>
    </g>
    <!-- Stats Icon -->
    <g transform="matrix(.10332 0 0 .10333 -343.4 -598.23)">
      <rect x="-6.8874" y="-516.8" width="4.1664" height="4.8266" ry="1.1628" style="fill:#ffd5d5;stroke-width:0"/>
      <rect x="-1.9559" y="-520.77" width="4.1664" height="8.7975" ry="1.4189" style="fill:#ffb3b3;stroke-width:0"/>
      <rect x="2.9757" y="-530.31" width="4.1664" height="18.34" ry="1.2929" style="fill:#ff9797;stroke-width:0"/>
      <rect x="7.997" y="-534.48" width="4.1664" height="22.503" ry="1.5864" style="fill:#ff6f6f;stroke-width:0"/>
      <rect x="13.108" y="-538.57" width="4.1664" height="26.602" ry="1.8754" style="fill:#f44;stroke-width:0"/>
    </g>
  </g>
</svg>
