<?xml version="1.0" encoding="UTF-8"?>
<svg width="40" height="40" version="1.1" viewBox="0 0 10.583 10.583" xmlns="http://www.w3.org/2000/svg">
  <g transform="matrix(1.0116 0 0 1.0117 9.9997 1.9937)">
    <!-- Background -->
    <rect x="-9.8604" y="-1.9466" width="10.413" height="10.413" ry="2.7523" fill="#ff7070" stroke="#ff7070" stroke-width=".048263"/>
    <!-- Alphabet Z -->
    <g stroke-width=".46345" aria-label="Z">
      <path d="m-7.9838 6.0338q0.17055-0.23728 0.37817-0.52647t0.43749-0.61546q0.23728-0.33368 0.48198-0.68219 0.25211-0.35593 0.51164-0.71185 0.25953-0.35593 0.50423-0.69702 0.25211-0.34851 0.48198-0.66736 0.23728-0.32627 0.44491-0.60804 0.20762-0.28177 0.37817-0.50423l0.066736 0.096397h-2.9735q-0.13347 0-0.2447-0.037076t-0.17796-0.11864q-0.066736-0.081566-0.066736-0.22245v-0.22987h0.34851v0.088982q0 0.096397 0.051906 0.13347 0.051906 0.037076 0.17796 0.037076h3.3887l-3.6038 4.9756-0.029661-0.059321h3.8114v0.34851z" fill="#fff" stroke-width=".46345"/>
    </g>
    <!-- Arrow -->
    <g transform="matrix(.36775 0 0 -.36775 -105.69 -159.76)">
      <!-- Arrow Tip -->
      <g stroke-width="1.2602" aria-label="^">
        <path d="m283.31-448.23q-0.26212-0.38311-0.56457-0.80654-0.30245-0.44359-0.62506-0.88718-0.30245-0.44359-0.56458-0.8267-0.26212 0.38311-0.56457 0.8267t-0.6049 0.88718q-0.30245 0.42343-0.56457 0.80654h-0.68555q0.6049-0.90735 1.2098-1.8147 0.60489-0.92751 1.2098-1.8349 0.6049 0.90735 1.2098 1.8349 0.62506 0.90735 1.23 1.8147z" fill="#fff" stroke-width="1.2602"/>
      </g>
      <!-- Arrow Stick -->
      <g transform="scale(1.0837 .92275)" stroke-width="1.1629" aria-label="|">
        <path d="m259.41-488.51h0.81865v17.433h-0.81865z" fill="#fff" stroke-width="1.1629"/>
      </g>
    </g>
  </g>
</svg>
